<svg width="259" height="37" viewBox="0 0 259 37" fill="none" xmlns="http://www.w3.org/2000/svg">
<path d="M15.9294 3.88778C17.5966 2.4488 18.4302 1.7293 19.3719 1.21674C20.2072 0.762085 21.1031 0.428918 22.0325 0.227301C23.0803 0 24.1815 0 26.3838 0H243C248.601 0 251.401 0 253.54 1.08993C255.422 2.04867 256.951 3.57847 257.91 5.46009C259 7.59921 259 10.3995 259 16V21C259 26.6005 259 29.4008 257.91 31.5399C256.951 33.4215 255.422 34.9513 253.54 35.9101C251.401 37 248.601 37 243 37H26.3838C24.1815 37 23.0803 37 22.0325 36.7727C21.1031 36.5711 20.2072 36.2379 19.3719 35.7833C18.4302 35.2707 17.5966 34.5512 15.9294 33.1122L1.80659 20.9224C0.839004 20.0873 0.355212 19.6697 0.177748 19.1736C0.0219728 18.738 0.0219728 18.262 0.177748 17.8264C0.355212 17.3303 0.839004 16.9127 1.80659 16.0776L15.9294 3.88778Z" fill="#1A1C4D"/>
</svg>
